<svg width="40" height="40" viewBox="0 0 40 40" fill="none" xmlns="http://www.w3.org/2000/svg">
<rect width="40" height="40" rx="8" fill="#7157B2"/>
<path fill-rule="evenodd" clip-rule="evenodd" d="M14 11.6C12.6745 11.6 11.6 12.6745 11.6 14V26C11.6 27.3255 12.6745 28.4 14 28.4H26C27.3255 28.4 28.4 27.3255 28.4 26V14C28.4 12.6745 27.3255 11.6 26 11.6H14ZM24.8 16.4C24.8 15.7373 24.2627 15.2 23.6 15.2C22.9373 15.2 22.4 15.7373 22.4 16.4V23.6C22.4 24.2627 22.9373 24.8 23.6 24.8C24.2627 24.8 24.8 24.2627 24.8 23.6V16.4ZM21.2 18.8C21.2 18.1373 20.6627 17.6 20 17.6C19.3373 17.6 18.8 18.1373 18.8 18.8V23.6C18.8 24.2627 19.3373 24.8 20 24.8C20.6627 24.8 21.2 24.2627 21.2 23.6V18.8ZM17.6 22.4C17.6 21.7373 17.0627 21.2 16.4 21.2C15.7373 21.2 15.2 21.7373 15.2 22.4V23.6C15.2 24.2627 15.7373 24.8 16.4 24.8C17.0627 24.8 17.6 24.2627 17.6 23.6V22.4Z" fill="white"/>
</svg>
