<svg width="45" height="37" viewBox="0 0 45 37" fill="none" xmlns="http://www.w3.org/2000/svg">
<g clip-path="url(#clip0_72_1163)">
<path d="M20.1688 28.7725L21.9458 30.0979L28.6125 21.2615H20.8354L24.8333 15.9601L23.0563 14.6348L16.3896 23.4711H24.1667L20.1688 28.7725Z" fill="white"/>
<path d="M45 7.73258H41.1104V6.84625C41.1104 3.07108 37.9688 0 34.1083 0C30.2479 0 27.2229 3.07108 27.2229 6.84625V7.73258H17.7792V6.84625C17.7792 3.07108 14.6375 0 10.775 0C6.9125 0 3.88958 3.07108 3.88958 6.84625V7.73258H0V9.94218V37H45V7.73258ZM34.225 2.2096C36.7958 2.2096 38.8896 4.28874 38.8896 6.84625V7.73258H29.4583L29.4438 6.84625C29.4438 4.24733 31.5437 2.2096 34.225 2.2096ZM10.8917 2.2096C13.4625 2.2096 15.5562 4.28874 15.5562 6.84625V7.73258H6.125L6.11042 6.84625C6.11042 4.24733 8.21042 2.2096 10.8917 2.2096ZM42.7792 34.7904H2.22292V9.94011H42.7792V34.7904Z" fill="white"/>
</g>
<defs>
<clipPath id="clip0_72_1163">
<rect width="45" height="37" fill="white"/>
</clipPath>
</defs>
</svg>
