<svg width="36" height="50" viewBox="0 0 36 50" fill="none" xmlns="http://www.w3.org/2000/svg">
<path d="M2.6623 50V47.9339H16.951V22.2706L16.43 22.0867C16.2392 22.0189 16.1016 21.9647 15.9797 21.9066L15.4783 21.6684L1.48255 35.4518L0 33.9917L13.9957 20.2084L13.7559 19.7146C13.4413 19.0678 13.282 18.3978 13.282 17.7259C13.282 17.0539 13.4413 16.3859 13.7559 15.7372L13.9957 15.2434L0 1.46005L1.48255 0L15.4783 13.7834L15.9797 13.5471C16.6384 13.2373 17.3167 13.0804 17.999 13.0804C18.6813 13.0804 19.3597 13.2373 20.0184 13.5471L20.5197 13.7834L34.5155 0L35.998 1.46005L22.0043 15.2434L22.2441 15.7372C22.5587 16.384 22.718 17.0539 22.718 17.7259C22.718 18.3978 22.5587 19.0659 22.2441 19.7146L22.0043 20.2084L36 33.9917L34.5175 35.4518L20.5217 21.6703L20.0203 21.9066C19.8945 21.9666 19.7509 22.0228 19.572 22.0867L19.049 22.2706V47.9339H33.3377V50H2.6623Z" fill="white"/>
</svg>
