<svg width="55" height="41" viewBox="0 0 55 41" fill="none" xmlns="http://www.w3.org/2000/svg">
<path d="M36.3377 41C33.335 41 30.5105 39.6328 28.1694 37.044L27.4967 36.3025L26.8239 37.044C24.4806 39.6328 21.6561 41 18.6578 41C15.6596 41 12.8328 39.6328 10.4894 37.044L9.81673 36.3025L9.14402 37.044C6.80288 39.6306 3.97837 40.9979 0.977887 40.9979H0V39.112H0.980114C3.85363 39.112 6.58904 37.4748 8.72302 34.4895H10.9127C13.0511 37.4748 15.7865 39.112 18.66 39.112C21.5336 39.112 24.2667 37.4748 26.4052 34.4895H28.5926C30.731 37.4748 33.4664 39.112 36.3422 39.112C39.2179 39.112 41.9489 37.4748 44.0873 34.4874H46.2792C48.4132 37.4726 51.1464 39.1077 54.0154 39.1077H55V40.9936H54.0199C51.0194 40.9936 48.1949 39.6263 45.8538 37.0397L45.181 36.2982L44.5083 37.0397C42.1627 39.6285 39.3382 40.9957 36.34 40.9957L36.3377 41ZM36.3377 23.7574C33.335 23.7574 30.5105 22.3901 28.1694 19.8014L27.4967 19.0599L26.8239 19.8014C24.4806 22.3901 21.6561 23.7574 18.6578 23.7574C15.6596 23.7574 12.8328 22.3901 10.4894 19.8014L9.81673 19.0599L9.14402 19.8014C6.80288 22.388 3.97837 23.7552 0.977887 23.7552H0V21.8694H0.980114C3.85363 21.8694 6.58904 20.2321 8.72302 17.2469H10.9127C13.0511 20.2321 15.7865 21.8694 18.6578 21.8694C21.5291 21.8694 24.2667 20.2321 26.4029 17.2469H28.5904C30.7288 20.2321 33.4664 21.8694 36.34 21.8694C39.2135 21.8694 41.9489 20.2321 44.0851 17.2469H46.2748C48.411 20.2321 51.1441 21.8694 54.0154 21.8694H54.9955V23.7552H54.0154C51.0149 23.7552 48.1927 22.388 45.8493 19.7992L45.1766 19.0578L44.5039 19.7992C42.1583 22.388 39.3338 23.7552 36.3355 23.7552L36.3377 23.7574ZM36.3377 6.51045C33.335 6.51045 30.5105 5.14322 28.1694 2.55446L27.4967 1.81298L26.8239 2.55446C24.4806 5.14322 21.6561 6.51045 18.6578 6.51045C15.6596 6.51045 12.8328 5.14322 10.4894 2.55446L9.81673 1.81298L9.14402 2.55446C6.80511 5.14107 3.9806 6.50831 0.980114 6.50831H0V4.62246H0.980114C3.85363 4.62246 6.58904 2.98521 8.72302 0H10.9127C13.0511 2.98521 15.7865 4.62246 18.6578 4.62246C21.5291 4.62246 24.2667 2.98521 26.4052 0H28.5926C30.731 2.98521 33.4687 4.62246 36.3422 4.62246C39.2157 4.62246 41.9511 2.98521 44.0873 0H46.2792C48.4154 2.98521 51.1508 4.62246 54.0221 4.62246H55V6.51045H54.0199C51.0194 6.51045 48.1971 5.14322 45.8538 2.55446L45.181 1.81298L44.5083 2.55446C42.1627 5.14322 39.3382 6.51045 36.34 6.51045H36.3377Z" fill="white"/>
</svg>
