<svg width="40" height="40" viewBox="0 0 40 40" fill="none" xmlns="http://www.w3.org/2000/svg">
<rect width="40" height="40" rx="8" fill="#7157B2"/>
<path d="M11.6 12.8C11.6 12.1373 12.1373 11.6 12.8 11.6H27.2C27.8627 11.6 28.4 12.1373 28.4 12.8V15.2C28.4 15.8627 27.8627 16.4 27.2 16.4H12.8C12.1373 16.4 11.6 15.8627 11.6 15.2V12.8Z" fill="white"/>
<path d="M11.6 20C11.6 19.3373 12.1373 18.8 12.8 18.8H20C20.6627 18.8 21.2 19.3373 21.2 20V27.2C21.2 27.8627 20.6627 28.4 20 28.4H12.8C12.1373 28.4 11.6 27.8627 11.6 27.2V20Z" fill="white"/>
<path d="M24.8 18.8C24.1373 18.8 23.6 19.3373 23.6 20V27.2C23.6 27.8627 24.1373 28.4 24.8 28.4H27.2C27.8627 28.4 28.4 27.8627 28.4 27.2V20C28.4 19.3373 27.8627 18.8 27.2 18.8H24.8Z" fill="white"/>
</svg>
