<svg width="40" height="40" viewBox="0 0 40 40" fill="none" xmlns="http://www.w3.org/2000/svg">
<rect width="40" height="40" rx="8" fill="#7157B2"/>
<path d="M12.8 12.8C11.4745 12.8 10.4 13.8745 10.4 15.2V16.4H29.6V15.2C29.6 13.8745 28.5255 12.8 27.2 12.8H12.8Z" fill="white"/>
<path fill-rule="evenodd" clip-rule="evenodd" d="M29.6 18.8H10.4V24.8C10.4 26.1255 11.4745 27.2 12.8 27.2H27.2C28.5255 27.2 29.6 26.1255 29.6 24.8V18.8ZM12.8 23.6C12.8 22.9372 13.3373 22.4 14 22.4H15.2C15.8627 22.4 16.4 22.9372 16.4 23.6C16.4 24.2627 15.8627 24.8 15.2 24.8H14C13.3373 24.8 12.8 24.2627 12.8 23.6ZM18.8 22.4C18.1373 22.4 17.6 22.9372 17.6 23.6C17.6 24.2627 18.1373 24.8 18.8 24.8H20C20.6627 24.8 21.2 24.2627 21.2 23.6C21.2 22.9372 20.6627 22.4 20 22.4H18.8Z" fill="white"/>
</svg>
