<svg width="548" height="452" viewBox="0 0 548 452" fill="none" xmlns="http://www.w3.org/2000/svg">
<circle cx="296" cy="211" r="166" stroke="#C5C7D7" stroke-width="2"/>
<rect x="7" y="110" width="176" height="57" fill="white"/>
<rect x="407" y="110" width="141" height="57" fill="white"/>
<rect x="62" y="236" width="155" height="75" fill="white"/>
<rect x="416" y="236" width="125" height="75" fill="white"/>
<rect x="254" y="336" width="85" height="116" fill="white"/>
<rect x="254" y="18" width="85" height="54" fill="white"/>
<path d="M311.378 43.5358H311.176L311.11 43.3453C310.475 40.6114 308.102 38.7068 305.332 38.7068C304.743 38.7068 304.161 38.7972 303.596 38.9756L303.459 39.0196L303.383 38.8892C301.266 35.2561 297.377 33 293.233 33C292.821 33 292.394 33.0282 291.89 33.0904C286.745 33.7006 282.526 37.741 281.629 42.9134L281.602 43.0522L281.475 43.0804C278.252 43.7746 276 46.6029 276 49.9589C276 50.0614 276.008 50.1615 276.014 50.2458L276.02 50.3702C276.022 50.3883 276.022 50.4044 276.026 50.4222C276.262 54.1135 279.286 57 282.927 57H311.378C315.029 57 318 53.9811 318 50.2697C318 46.5566 315.028 43.5358 311.377 43.5358L311.378 43.5358ZM311.378 55.7924H282.927C279.911 55.7924 277.409 53.3818 277.232 50.3047C277.232 50.2906 277.23 50.2745 277.228 50.2607L277.224 50.168C277.218 50.0997 277.212 50.0295 277.212 49.9593C277.212 47.1773 279.071 44.8349 281.732 44.2609L282.258 44.1484C282.5 44.0963 282.685 43.9034 282.728 43.6605L282.82 43.1205C283.627 38.4699 287.413 34.8388 292.033 34.2911C292.489 34.2349 292.87 34.2087 293.23 34.2087C296.944 34.2087 300.431 36.236 302.332 39.4978L302.653 40.0458C302.796 40.2908 303.088 40.4051 303.361 40.3187L303.963 40.1282C304.407 39.9877 304.869 39.9155 305.332 39.9155C307.546 39.9155 309.439 41.4491 309.937 43.6467C309.943 43.6689 309.949 43.6907 309.955 43.7129L310.175 44.3393C310.259 44.5822 310.489 44.7428 310.747 44.7428H311.38C314.364 44.7428 316.791 47.2217 316.791 50.2668C316.788 53.3139 314.361 55.7928 311.378 55.7928V55.7924Z" fill="#5819F1" stroke="#5819F1" stroke-width="0.5"/>
<path d="M70.3281 123.12H60.7601V125.136H64.4561V134H66.6321V125.136H70.3281V123.12ZM72.104 127.248V126.368H70.008V134H72.104V129.376C72.76 128.64 73.624 128.288 74.808 128.224V126.24C73.672 126.24 72.792 126.592 72.104 127.248ZM81.6088 126.368V126.8C81.0168 126.416 80.2648 126.176 79.4168 126.176C77.3048 126.176 75.6088 127.968 75.6088 130.192C75.6088 132.4 77.3048 134.192 79.4168 134.192C80.2648 134.192 81.0168 133.952 81.6088 133.568V134H83.7048V126.368H81.6088ZM79.7368 132.288C78.5368 132.288 77.7048 131.328 77.7048 130.192C77.7048 129.04 78.5368 128.08 79.7368 128.08C80.4248 128.08 81.1128 128.272 81.6088 128.976V131.392C81.1128 132.096 80.4248 132.288 79.7368 132.288ZM91.2025 122.64V126.8C90.6105 126.416 89.8585 126.176 89.0105 126.176C86.8985 126.176 85.2025 127.968 85.2025 130.176C85.2025 132.4 86.8985 134.192 89.0105 134.192C89.8585 134.192 90.6105 133.952 91.2025 133.568V134H93.2985V122.64H91.2025ZM89.3305 132.288C88.1305 132.288 87.2985 131.328 87.2985 130.176C87.2985 129.04 88.1305 128.08 89.3305 128.08C90.0185 128.08 90.7065 128.272 91.2025 128.976V131.392C90.7065 132.096 90.0185 132.288 89.3305 132.288ZM96.6005 124.88C97.3045 124.88 97.8805 124.352 97.8805 123.648C97.8805 122.928 97.3045 122.4 96.6005 122.4C95.8805 122.4 95.3205 122.928 95.3205 123.648C95.3205 124.352 95.8805 124.88 96.6005 124.88ZM95.5605 126.368V134H97.6565V126.368H95.5605ZM104.203 126.176C103.339 126.176 102.619 126.448 101.995 126.944V126.368H99.8986V134H101.995V129.056C102.539 128.416 103.179 128.08 103.755 128.08C104.859 128.08 105.483 128.736 105.483 129.984V134H107.579V129.856C107.579 127.616 106.235 126.176 104.203 126.176ZM114.89 126.368V126.784C114.298 126.4 113.546 126.176 112.698 126.176C110.586 126.176 108.89 127.712 108.89 130C108.89 131.968 110.586 133.68 112.698 133.68C113.546 133.68 114.298 133.456 114.89 133.072V134.048C114.89 135.296 114.106 135.968 113.082 135.968C111.994 135.968 111.322 135.408 111.226 134.592H109.098C109.258 136.512 110.89 137.872 113.082 137.872C115.354 137.872 116.986 136.432 116.986 134.048V126.368H114.89ZM113.018 131.872C111.818 131.872 110.986 130.896 110.986 130C110.986 128.784 111.818 127.984 113.018 127.984C113.706 127.984 114.394 128.224 114.89 128.944V130.912C114.394 131.632 113.706 131.872 113.018 131.872ZM22.6058 140.928C19.4698 140.928 16.9418 143.424 16.9418 146.56C16.9418 149.696 19.4698 152.192 22.6058 152.192C25.7418 152.192 28.2698 149.696 28.2698 146.56C28.2698 143.424 25.7418 140.928 22.6058 140.928ZM22.6058 150.16C20.6218 150.16 19.1498 148.544 19.1498 146.56C19.1498 144.576 20.6218 142.96 22.6058 142.96C24.5898 142.96 26.0618 144.576 26.0618 146.56C26.0618 148.544 24.5898 150.16 22.6058 150.16ZM34.421 144.208C33.573 144.208 32.821 144.432 32.229 144.816V144.368H30.133V155.728H32.229V151.552C32.821 151.936 33.573 152.16 34.421 152.16C36.533 152.16 38.229 150.4 38.229 148.192C38.229 145.968 36.533 144.208 34.421 144.208ZM34.101 150.352C33.413 150.352 32.725 150.112 32.229 149.408V146.96C32.725 146.256 33.413 146.016 34.101 146.016C35.301 146.016 36.133 147.04 36.133 148.192C36.133 149.328 35.301 150.352 34.101 150.352ZM45.355 149.952C44.971 150.112 44.523 150.256 44.043 150.256C43.259 150.256 42.699 149.856 42.699 148.96V146.128H45.499V144.368H42.699V141.6H40.603V144.368H38.971V146.128H40.603V148.96C40.603 150.912 41.755 152.192 43.803 152.192C44.363 152.192 44.939 152.128 45.643 151.856L45.355 149.952ZM48.3974 142.88C49.1014 142.88 49.6774 142.352 49.6774 141.648C49.6774 140.928 49.1014 140.4 48.3974 140.4C47.6774 140.4 47.1174 140.928 47.1174 141.648C47.1174 142.352 47.6774 142.88 48.3974 142.88ZM47.3574 144.368V152H49.4534V144.368H47.3574ZM60.8155 144.176C59.7755 144.176 58.9915 144.496 58.2395 145.136C57.6635 144.496 56.8155 144.176 55.8075 144.176C54.8955 144.176 54.3035 144.448 53.7915 144.88V144.368H51.6955V152H53.7915V146.976C54.2875 146.336 54.8795 146.08 55.5355 146.08C56.3355 146.08 56.9595 146.464 56.9595 147.632V152H59.0555V147.632C59.0555 147.36 59.0395 147.12 59.0075 146.88C59.5035 146.272 60.0955 146.08 60.6715 146.08C61.5995 146.08 62.2235 146.576 62.2235 147.76V152H64.3195V147.76C64.3195 145.456 62.8795 144.176 60.8155 144.176ZM67.5068 142.88C68.2108 142.88 68.7868 142.352 68.7868 141.648C68.7868 140.928 68.2108 140.4 67.5068 140.4C66.7868 140.4 66.2268 140.928 66.2268 141.648C66.2268 142.352 66.7868 142.88 67.5068 142.88ZM66.4668 144.368V152H68.5628V144.368H66.4668ZM72.2129 149.36L70.2769 149.344C70.4369 151.568 72.1329 152.192 73.8129 152.192C75.7489 152.192 77.2209 151.36 77.2209 149.664C77.2209 148.192 76.1169 147.648 74.9329 147.44L73.5569 147.216C72.8209 147.088 72.6129 146.752 72.6129 146.464C72.6129 146.096 72.9969 145.824 73.7969 145.824C74.5329 145.824 75.1889 146.048 75.2369 146.736H77.1729C76.9969 144.544 75.1729 144.16 73.7969 144.16C71.8609 144.16 70.5329 145.104 70.5329 146.672C70.5329 148.112 71.6689 148.72 72.7889 148.912L74.4369 149.2C74.9649 149.296 75.2209 149.552 75.2209 149.856C75.2209 150.288 74.6609 150.496 73.8609 150.496C72.9649 150.496 72.3409 150.224 72.2129 149.36ZM84.3431 144.368V144.8C83.7511 144.416 82.9991 144.176 82.1511 144.176C80.0391 144.176 78.3431 145.968 78.3431 148.192C78.3431 150.4 80.0391 152.192 82.1511 152.192C82.9991 152.192 83.7511 151.952 84.3431 151.568V152H86.4391V144.368H84.3431ZM82.4711 150.288C81.2711 150.288 80.4391 149.328 80.4391 148.192C80.4391 147.04 81.2711 146.08 82.4711 146.08C83.1591 146.08 83.8471 146.272 84.3431 146.976V149.392C83.8471 150.096 83.1591 150.288 82.4711 150.288ZM93.9331 149.952C93.5491 150.112 93.1011 150.256 92.6211 150.256C91.8371 150.256 91.2771 149.856 91.2771 148.96V146.128H94.0771V144.368H91.2771V141.6H89.1811V144.368H87.5491V146.128H89.1811V148.96C89.1811 150.912 90.3331 152.192 92.3811 152.192C92.9411 152.192 93.5171 152.128 94.2211 151.856L93.9331 149.952ZM96.9755 142.88C97.6795 142.88 98.2555 142.352 98.2555 141.648C98.2555 140.928 97.6795 140.4 96.9755 140.4C96.2555 140.4 95.6955 140.928 95.6955 141.648C95.6955 142.352 96.2555 142.88 96.9755 142.88ZM95.9355 144.368V152H98.0315V144.368H95.9355ZM103.891 144.176C101.492 144.176 99.8275 145.824 99.8275 148.192C99.8275 150.544 101.492 152.192 103.891 152.192C106.276 152.192 107.94 150.544 107.94 148.192C107.94 145.824 106.276 144.176 103.891 144.176ZM103.891 150.288C102.724 150.288 101.924 149.424 101.924 148.192C101.924 146.944 102.724 146.08 103.891 146.08C105.044 146.08 105.844 146.944 105.844 148.192C105.844 149.424 105.044 150.288 103.891 150.288ZM113.734 144.176C112.87 144.176 112.15 144.448 111.526 144.944V144.368H109.43V152H111.526V147.056C112.07 146.416 112.71 146.08 113.286 146.08C114.39 146.08 115.014 146.736 115.014 147.984V152H117.11V147.856C117.11 145.616 115.766 144.176 113.734 144.176Z" fill="#6F729C"/>
<path d="M279.871 11.16C277.887 11.16 276.415 9.704 276.415 7.56C276.415 5.416 277.887 3.96 279.871 3.96C281.471 3.96 282.559 4.872 282.959 6.472H285.199C284.703 3.704 282.639 1.928 279.871 1.928C276.735 1.928 274.207 4.264 274.207 7.56C274.207 10.856 276.735 13.192 279.871 13.192C282.639 13.192 284.703 11.416 285.199 8.648H282.959C282.559 10.248 281.471 11.16 279.871 11.16ZM286.977 1.64V13H289.073V1.64H286.977ZM294.704 5.176C292.304 5.176 290.64 6.824 290.64 9.192C290.64 11.544 292.304 13.192 294.704 13.192C297.088 13.192 298.752 11.544 298.752 9.192C298.752 6.824 297.088 5.176 294.704 5.176ZM294.704 11.288C293.536 11.288 292.736 10.424 292.736 9.192C292.736 7.944 293.536 7.08 294.704 7.08C295.856 7.08 296.656 7.944 296.656 9.192C296.656 10.424 295.856 11.288 294.704 11.288ZM305.793 5.368V10.28C305.249 10.936 304.609 11.288 304.033 11.288C302.929 11.288 302.305 10.584 302.305 9.336V5.368H300.209V9.464C300.209 11.704 301.553 13.192 303.585 13.192C304.449 13.192 305.169 12.888 305.793 12.392V13H307.889V5.368H305.793ZM315.531 1.64V5.8C314.939 5.416 314.187 5.176 313.339 5.176C311.227 5.176 309.531 6.968 309.531 9.176C309.531 11.4 311.227 13.192 313.339 13.192C314.187 13.192 314.939 12.952 315.531 12.568V13H317.627V1.64H315.531ZM313.659 11.288C312.459 11.288 311.627 10.328 311.627 9.176C311.627 8.04 312.459 7.08 313.659 7.08C314.347 7.08 315.035 7.272 315.531 7.976V10.392C315.035 11.096 314.347 11.288 313.659 11.288Z" fill="#6F729C"/>
<path d="M96.1103 259.12H93.9343V265.104C93.9343 266.96 92.8463 268.16 91.2303 268.16C89.6143 268.16 88.5423 266.96 88.5423 265.104V259.12H86.3663V265.104C86.3663 268.304 88.3183 270.192 91.2303 270.192C94.1583 270.192 96.1103 268.304 96.1103 265.104V259.12ZM98.3221 270.112C99.0261 270.112 99.6021 269.584 99.6021 268.88C99.6021 268.192 99.0261 267.664 98.3221 267.664C97.6341 267.664 97.0581 268.192 97.0581 268.88C97.0581 269.584 97.6341 270.112 98.3221 270.112ZM101.198 259.12V270H103.374V259.12H101.198ZM106.244 270.112C106.948 270.112 107.524 269.584 107.524 268.88C107.524 268.192 106.948 267.664 106.244 267.664C105.556 267.664 104.98 268.192 104.98 268.88C104.98 269.584 105.556 270.112 106.244 270.112ZM2.49413 285.36L0.558125 285.344C0.718125 287.568 2.41413 288.192 4.09413 288.192C6.03013 288.192 7.50213 287.36 7.50213 285.664C7.50213 284.192 6.39813 283.648 5.21413 283.44L3.83813 283.216C3.10213 283.088 2.89413 282.752 2.89413 282.464C2.89413 282.096 3.27813 281.824 4.07812 281.824C4.81413 281.824 5.47013 282.048 5.51813 282.736H7.45413C7.27813 280.544 5.45413 280.16 4.07812 280.16C2.14213 280.16 0.814125 281.104 0.814125 282.672C0.814125 284.112 1.95013 284.72 3.07013 284.912L4.71813 285.2C5.24613 285.296 5.50213 285.552 5.50213 285.856C5.50213 286.288 4.94213 286.496 4.14213 286.496C3.24613 286.496 2.62213 286.224 2.49413 285.36ZM12.5604 280.176C10.2244 280.176 8.62438 281.92 8.62438 284.192C8.62438 286.464 10.2404 288.192 12.6884 288.192C14.3684 288.192 15.7284 287.36 16.2404 285.92H13.9204C13.6484 286.256 13.2644 286.352 12.7044 286.352C11.5044 286.352 10.9284 285.68 10.7684 284.8H16.3684C16.7684 282.16 15.1844 280.176 12.5604 280.176ZM12.5764 281.952C13.5524 281.952 14.1764 282.4 14.2884 283.376H10.8164C11.0084 282.576 11.5524 281.952 12.5764 281.952ZM20.0259 281.248V280.368H17.9299V288H20.0259V283.376C20.6819 282.64 21.5459 282.288 22.7299 282.224V280.24C21.5939 280.24 20.7139 280.592 20.0259 281.248ZM30.0191 280.368L27.8431 285.312L25.6671 280.368H23.4431L26.9311 288H28.7551L32.2431 280.368H30.0191ZM34.7724 278.88C35.4764 278.88 36.0524 278.352 36.0524 277.648C36.0524 276.928 35.4764 276.4 34.7724 276.4C34.0524 276.4 33.4924 276.928 33.4924 277.648C33.4924 278.352 34.0524 278.88 34.7724 278.88ZM33.7324 280.368V288H35.8284V280.368H33.7324ZM41.6884 286.288C40.4884 286.288 39.7204 285.36 39.7204 284.192C39.7204 283.024 40.4884 282.08 41.6884 282.08C42.5524 282.08 43.1924 282.592 43.3524 283.328H45.4964C45.2564 281.488 43.6564 280.176 41.6884 280.176C39.4004 280.176 37.6244 281.92 37.6244 284.192C37.6244 286.464 39.4004 288.192 41.6884 288.192C43.6564 288.192 45.2564 286.896 45.4964 285.056H43.3524C43.1924 285.792 42.5524 286.288 41.6884 286.288ZM50.7166 280.176C48.3806 280.176 46.7806 281.92 46.7806 284.192C46.7806 286.464 48.3966 288.192 50.8446 288.192C52.5246 288.192 53.8846 287.36 54.3966 285.92H52.0766C51.8046 286.256 51.4206 286.352 50.8606 286.352C49.6606 286.352 49.0846 285.68 48.9246 284.8H54.5246C54.9246 282.16 53.3406 280.176 50.7166 280.176ZM50.7326 281.952C51.7086 281.952 52.3326 282.4 52.4446 283.376H48.9726C49.1646 282.576 49.7086 281.952 50.7326 281.952ZM57.5723 285.36L55.6363 285.344C55.7963 287.568 57.4923 288.192 59.1723 288.192C61.1083 288.192 62.5803 287.36 62.5803 285.664C62.5803 284.192 61.4763 283.648 60.2923 283.44L58.9163 283.216C58.1803 283.088 57.9723 282.752 57.9723 282.464C57.9723 282.096 58.3563 281.824 59.1562 281.824C59.8923 281.824 60.5483 282.048 60.5963 282.736H62.5323C62.3563 280.544 60.5323 280.16 59.1562 280.16C57.2203 280.16 55.8923 281.104 55.8923 282.672C55.8923 284.112 57.0283 284.72 58.1483 284.912L59.7963 285.2C60.3243 285.296 60.5803 285.552 60.5803 285.856C60.5803 286.288 60.0203 286.496 59.2203 286.496C58.3243 286.496 57.7003 286.224 57.5723 285.36ZM72.735 276.928C70.255 276.928 68.607 278.272 68.607 280.352C68.607 282.032 69.551 283.12 71.711 283.536L73.471 283.872C74.639 284.08 74.911 284.576 74.911 285.056C74.911 285.824 74.223 286.256 73.023 286.256C71.519 286.256 70.511 285.552 70.335 284.416H68.175C68.335 286.752 70.207 288.192 72.895 288.192C75.455 288.192 77.151 286.848 77.151 284.784C77.151 282.992 75.935 282.176 73.807 281.744L72.527 281.488C71.487 281.28 70.911 280.944 70.911 280.16C70.911 279.264 71.695 278.8 72.895 278.8C74.271 278.8 74.911 279.424 75.055 280.432H77.215C76.959 277.648 74.575 276.928 72.735 276.928ZM84.5775 280.368V280.8C83.9855 280.416 83.2335 280.176 82.3855 280.176C80.2735 280.176 78.5775 281.968 78.5775 284.192C78.5775 286.4 80.2735 288.192 82.3855 288.192C83.2335 288.192 83.9855 287.952 84.5775 287.568V288H86.6735V280.368H84.5775ZM82.7055 286.288C81.5055 286.288 80.6735 285.328 80.6735 284.192C80.6735 283.04 81.5055 282.08 82.7055 282.08C83.3935 282.08 84.0815 282.272 84.5775 282.976V285.392C84.0815 286.096 83.3935 286.288 82.7055 286.288ZM94.1713 280.368V280.8C93.5793 280.416 92.8273 280.176 91.9793 280.176C89.8673 280.176 88.1713 281.968 88.1713 284.192C88.1713 286.4 89.8673 288.192 91.9793 288.192C92.8273 288.192 93.5793 287.952 94.1713 287.568V288H96.2673V280.368H94.1713ZM92.2993 286.288C91.0993 286.288 90.2673 285.328 90.2673 284.192C90.2673 283.04 91.0993 282.08 92.2993 282.08C92.9873 282.08 93.6753 282.272 94.1713 282.976V285.392C93.6753 286.096 92.9873 286.288 92.2993 286.288ZM102.641 276.928C100.161 276.928 98.5133 278.272 98.5133 280.352C98.5133 282.032 99.4573 283.12 101.617 283.536L103.377 283.872C104.545 284.08 104.817 284.576 104.817 285.056C104.817 285.824 104.129 286.256 102.929 286.256C101.425 286.256 100.417 285.552 100.241 284.416H98.0813C98.2413 286.752 100.113 288.192 102.801 288.192C105.361 288.192 107.057 286.848 107.057 284.784C107.057 282.992 105.841 282.176 103.713 281.744L102.433 281.488C101.393 281.28 100.817 280.944 100.817 280.16C100.817 279.264 101.601 278.8 102.801 278.8C104.177 278.8 104.817 279.424 104.961 280.432H107.121C106.865 277.648 104.481 276.928 102.641 276.928Z" fill="#6F729C"/>
<path d="M282.105 400.12H280.569L276.441 406.712L272.313 400.12H270.777V411H272.953L272.921 404.856L275.785 409.384V409.4H277.097L279.929 404.92V411H282.105V400.12ZM289.859 403.368V403.8C289.267 403.416 288.515 403.176 287.667 403.176C285.555 403.176 283.859 404.968 283.859 407.192C283.859 409.4 285.555 411.192 287.667 411.192C288.515 411.192 289.267 410.952 289.859 410.568V411H291.955V403.368H289.859ZM287.987 409.288C286.787 409.288 285.955 408.328 285.955 407.192C285.955 406.04 286.787 405.08 287.987 405.08C288.675 405.08 289.363 405.272 289.859 405.976V408.392C289.363 409.096 288.675 409.288 287.987 409.288ZM296.073 404.248V403.368H293.977V411H296.073V406.376C296.729 405.64 297.593 405.288 298.777 405.224V403.24C297.641 403.24 296.761 403.592 296.073 404.248ZM305.731 411H308.435L305.075 406.536L308.067 403.368H305.411L302.355 406.648V399.64H300.259V411H302.355V409.4L303.635 408.056L305.731 411ZM312.53 403.176C310.194 403.176 308.594 404.92 308.594 407.192C308.594 409.464 310.21 411.192 312.658 411.192C314.338 411.192 315.698 410.36 316.21 408.92H313.89C313.618 409.256 313.234 409.352 312.674 409.352C311.474 409.352 310.898 408.68 310.738 407.8H316.338C316.738 405.16 315.154 403.176 312.53 403.176ZM312.546 404.952C313.522 404.952 314.146 405.4 314.258 406.376H310.786C310.978 405.576 311.522 404.952 312.546 404.952ZM323.528 408.952C323.144 409.112 322.696 409.256 322.216 409.256C321.432 409.256 320.872 408.856 320.872 407.96V405.128H323.672V403.368H320.872V400.6H318.776V403.368H317.144V405.128H318.776V407.96C318.776 409.912 319.928 411.192 321.976 411.192C322.536 411.192 323.112 411.128 323.816 410.856L323.528 408.952ZM267.436 421.368H264.476V420.712C264.476 419.816 265.068 419.256 266.012 419.256C266.284 419.256 266.748 419.352 267.132 419.48L267.42 417.704C266.812 417.528 266.3 417.448 265.756 417.448C263.82 417.448 262.38 418.68 262.38 420.712V421.368H260.268V423.128H262.38V429H264.476V423.128H267.436V421.368ZM271.97 421.176C269.57 421.176 267.906 422.824 267.906 425.192C267.906 427.544 269.57 429.192 271.97 429.192C274.354 429.192 276.018 427.544 276.018 425.192C276.018 422.824 274.354 421.176 271.97 421.176ZM271.97 427.288C270.802 427.288 270.002 426.424 270.002 425.192C270.002 423.944 270.802 423.08 271.97 423.08C273.122 423.08 273.922 423.944 273.922 425.192C273.922 426.424 273.122 427.288 271.97 427.288ZM279.605 422.248V421.368H277.509V429H279.605V424.376C280.261 423.64 281.125 423.288 282.309 423.224V421.24C281.173 421.24 280.293 421.592 279.605 422.248ZM287.045 421.176C284.709 421.176 283.109 422.92 283.109 425.192C283.109 427.464 284.725 429.192 287.173 429.192C288.853 429.192 290.213 428.36 290.725 426.92H288.405C288.133 427.256 287.749 427.352 287.189 427.352C285.989 427.352 285.413 426.68 285.253 425.8H290.853C291.253 423.16 289.669 421.176 287.045 421.176ZM287.061 422.952C288.037 422.952 288.661 423.4 288.773 424.376H285.301C285.493 423.576 286.037 422.952 287.061 422.952ZM296.267 427.288C295.067 427.288 294.299 426.36 294.299 425.192C294.299 424.024 295.067 423.08 296.267 423.08C297.131 423.08 297.771 423.592 297.931 424.328H300.075C299.835 422.488 298.235 421.176 296.267 421.176C293.979 421.176 292.203 422.92 292.203 425.192C292.203 427.464 293.979 429.192 296.267 429.192C298.235 429.192 299.835 427.896 300.075 426.056H297.931C297.771 426.792 297.131 427.288 296.267 427.288ZM307.359 421.368V421.8C306.767 421.416 306.015 421.176 305.167 421.176C303.055 421.176 301.359 422.968 301.359 425.192C301.359 427.4 303.055 429.192 305.167 429.192C306.015 429.192 306.767 428.952 307.359 428.568V429H309.455V421.368H307.359ZM305.487 427.288C304.287 427.288 303.455 426.328 303.455 425.192C303.455 424.04 304.287 423.08 305.487 423.08C306.175 423.08 306.863 423.272 307.359 423.976V426.392C306.863 427.096 306.175 427.288 305.487 427.288ZM312.885 426.36L310.949 426.344C311.109 428.568 312.805 429.192 314.485 429.192C316.421 429.192 317.893 428.36 317.893 426.664C317.893 425.192 316.789 424.648 315.605 424.44L314.229 424.216C313.493 424.088 313.285 423.752 313.285 423.464C313.285 423.096 313.669 422.824 314.469 422.824C315.205 422.824 315.861 423.048 315.909 423.736H317.845C317.669 421.544 315.845 421.16 314.469 421.16C312.533 421.16 311.205 422.104 311.205 423.672C311.205 425.112 312.341 425.72 313.461 425.912L315.109 426.2C315.637 426.296 315.893 426.552 315.893 426.856C315.893 427.288 315.333 427.496 314.533 427.496C313.637 427.496 313.013 427.224 312.885 426.36ZM325.012 426.952C324.628 427.112 324.18 427.256 323.7 427.256C322.916 427.256 322.356 426.856 322.356 425.96V423.128H325.156V421.368H322.356V418.6H320.26V421.368H318.628V423.128H320.26V425.96C320.26 427.912 321.412 429.192 323.46 429.192C324.02 429.192 324.596 429.128 325.3 428.856L325.012 426.952ZM328.104 426.36L326.168 426.344C326.328 428.568 328.024 429.192 329.704 429.192C331.64 429.192 333.112 428.36 333.112 426.664C333.112 425.192 332.008 424.648 330.824 424.44L329.448 424.216C328.712 424.088 328.504 423.752 328.504 423.464C328.504 423.096 328.888 422.824 329.688 422.824C330.424 422.824 331.08 423.048 331.128 423.736H333.064C332.888 421.544 331.064 421.16 329.688 421.16C327.752 421.16 326.424 422.104 326.424 423.672C326.424 425.112 327.56 425.72 328.68 425.912L330.328 426.2C330.856 426.296 331.112 426.552 331.112 426.856C331.112 427.288 330.552 427.496 329.752 427.496C328.856 427.496 328.232 427.224 328.104 426.36Z" fill="#6F729C"/>
<path d="M486.424 270H488.744L484.04 259.12H482.008L477.288 270H479.624L480.52 267.824H485.528L486.424 270ZM481.304 265.888L483.016 261.728L484.728 265.888H481.304ZM490.775 270.112C491.479 270.112 492.055 269.584 492.055 268.88C492.055 268.192 491.479 267.664 490.775 267.664C490.087 267.664 489.511 268.192 489.511 268.88C489.511 269.584 490.087 270.112 490.775 270.112ZM493.651 259.12V270H495.827V259.12H493.651ZM498.697 270.112C499.401 270.112 499.977 269.584 499.977 268.88C499.977 268.192 499.401 267.664 498.697 267.664C498.009 267.664 497.433 268.192 497.433 268.88C497.433 269.584 498.009 270.112 498.697 270.112ZM487.128 280.176C486.088 280.176 485.304 280.496 484.552 281.136C483.976 280.496 483.128 280.176 482.12 280.176C481.208 280.176 480.616 280.448 480.104 280.88V280.368H478.008V288H480.104V282.976C480.6 282.336 481.192 282.08 481.848 282.08C482.648 282.08 483.272 282.464 483.272 283.632V288H485.368V283.632C485.368 283.36 485.352 283.12 485.32 282.88C485.816 282.272 486.408 282.08 486.984 282.08C487.912 282.08 488.536 282.576 488.536 283.76V288H490.632V283.76C490.632 281.456 489.192 280.176 487.128 280.176ZM496.235 280.176C493.835 280.176 492.171 281.824 492.171 284.192C492.171 286.544 493.835 288.192 496.235 288.192C498.619 288.192 500.283 286.544 500.283 284.192C500.283 281.824 498.619 280.176 496.235 280.176ZM496.235 286.288C495.067 286.288 494.267 285.424 494.267 284.192C494.267 282.944 495.067 282.08 496.235 282.08C497.387 282.08 498.187 282.944 498.187 284.192C498.187 285.424 497.387 286.288 496.235 286.288ZM507.562 276.64V280.8C506.97 280.416 506.218 280.176 505.37 280.176C503.258 280.176 501.562 281.968 501.562 284.176C501.562 286.4 503.258 288.192 505.37 288.192C506.218 288.192 506.97 287.952 507.562 287.568V288H509.658V276.64H507.562ZM505.69 286.288C504.49 286.288 503.658 285.328 503.658 284.176C503.658 283.04 504.49 282.08 505.69 282.08C506.378 282.08 507.066 282.272 507.562 282.976V285.392C507.066 286.096 506.378 286.288 505.69 286.288ZM515.17 280.176C512.834 280.176 511.234 281.92 511.234 284.192C511.234 286.464 512.85 288.192 515.298 288.192C516.978 288.192 518.338 287.36 518.85 285.92H516.53C516.258 286.256 515.874 286.352 515.314 286.352C514.114 286.352 513.538 285.68 513.378 284.8H518.978C519.378 282.16 517.794 280.176 515.17 280.176ZM515.186 281.952C516.162 281.952 516.786 282.4 516.898 283.376H513.426C513.618 282.576 514.162 281.952 515.186 281.952ZM520.617 276.64V288H522.713V276.64H520.617ZM526.135 285.36L524.199 285.344C524.359 287.568 526.055 288.192 527.735 288.192C529.671 288.192 531.143 287.36 531.143 285.664C531.143 284.192 530.039 283.648 528.855 283.44L527.479 283.216C526.743 283.088 526.535 282.752 526.535 282.464C526.535 282.096 526.919 281.824 527.719 281.824C528.455 281.824 529.111 282.048 529.159 282.736H531.095C530.919 280.544 529.095 280.16 527.719 280.16C525.783 280.16 524.455 281.104 524.455 282.672C524.455 284.112 525.591 284.72 526.711 284.912L528.359 285.2C528.887 285.296 529.143 285.552 529.143 285.856C529.143 286.288 528.583 286.496 527.783 286.496C526.887 286.496 526.263 286.224 526.135 285.36Z" fill="#6F729C"/>
<path d="M475.444 138.368C476.372 138.032 476.964 137.056 476.964 135.984C476.964 134.208 475.62 133.12 473.3 133.12H468.388V144H473.54C475.94 144 477.444 142.8 477.444 141.024C477.444 139.776 476.82 138.656 475.444 138.368ZM473.044 135.04C474.292 135.04 474.916 135.488 474.916 136.272C474.916 137.088 474.26 137.712 473.044 137.712H470.564V135.04H473.044ZM473.444 142.08H470.564V139.504H473.524C474.596 139.504 475.3 139.968 475.3 140.752C475.3 141.456 474.724 142.08 473.444 142.08ZM480.446 134.88C481.15 134.88 481.726 134.352 481.726 133.648C481.726 132.928 481.15 132.4 480.446 132.4C479.726 132.4 479.166 132.928 479.166 133.648C479.166 134.352 479.726 134.88 480.446 134.88ZM479.406 136.368V144H481.502V136.368H479.406ZM489.376 136.368V136.784C488.784 136.4 488.032 136.176 487.184 136.176C485.072 136.176 483.376 137.712 483.376 140C483.376 141.968 485.072 143.68 487.184 143.68C488.032 143.68 488.784 143.456 489.376 143.072V144.048C489.376 145.296 488.592 145.968 487.568 145.968C486.48 145.968 485.808 145.408 485.712 144.592H483.584C483.744 146.512 485.376 147.872 487.568 147.872C489.84 147.872 491.472 146.432 491.472 144.048V136.368H489.376ZM487.504 141.872C486.304 141.872 485.472 140.896 485.472 140C485.472 138.784 486.304 137.984 487.504 137.984C488.192 137.984 488.88 138.224 489.376 138.944V140.912C488.88 141.632 488.192 141.872 487.504 141.872ZM503.283 132.64V136.8C502.691 136.416 501.939 136.176 501.091 136.176C498.979 136.176 497.283 137.968 497.283 140.176C497.283 142.4 498.979 144.192 501.091 144.192C501.939 144.192 502.691 143.952 503.283 143.568V144H505.379V132.64H503.283ZM501.411 142.288C500.211 142.288 499.379 141.328 499.379 140.176C499.379 139.04 500.211 138.08 501.411 138.08C502.099 138.08 502.787 138.272 503.283 138.976V141.392C502.787 142.096 502.099 142.288 501.411 142.288ZM512.954 136.368V136.8C512.362 136.416 511.61 136.176 510.762 136.176C508.65 136.176 506.954 137.968 506.954 140.192C506.954 142.4 508.65 144.192 510.762 144.192C511.61 144.192 512.362 143.952 512.954 143.568V144H515.05V136.368H512.954ZM511.082 142.288C509.882 142.288 509.05 141.328 509.05 140.192C509.05 139.04 509.882 138.08 511.082 138.08C511.77 138.08 512.458 138.272 512.954 138.976V141.392C512.458 142.096 511.77 142.288 511.082 142.288ZM522.544 141.952C522.16 142.112 521.712 142.256 521.232 142.256C520.448 142.256 519.888 141.856 519.888 140.96V138.128H522.688V136.368H519.888V133.6H517.792V136.368H516.16V138.128H517.792V140.96C517.792 142.912 518.944 144.192 520.992 144.192C521.552 144.192 522.128 144.128 522.832 143.856L522.544 141.952ZM529.626 136.368V136.8C529.034 136.416 528.282 136.176 527.434 136.176C525.322 136.176 523.626 137.968 523.626 140.192C523.626 142.4 525.322 144.192 527.434 144.192C528.282 144.192 529.034 143.952 529.626 143.568V144H531.722V136.368H529.626ZM527.754 142.288C526.554 142.288 525.722 141.328 525.722 140.192C525.722 139.04 526.554 138.08 527.754 138.08C528.442 138.08 529.13 138.272 529.626 138.976V141.392C529.13 142.096 528.442 142.288 527.754 142.288Z" fill="#6F729C"/>
<circle cx="438.5" cy="136.433" r="5.1667" fill="#5819F1"/>
<circle cx="425.756" cy="128.511" r="2.75557" fill="#5819F1"/>
<circle cx="430.578" cy="151.245" r="2.75557" fill="#5819F1"/>
<circle cx="449.178" cy="143.667" r="2.75557" fill="#5819F1"/>
<circle cx="450.556" cy="125.756" r="2.75557" fill="#5819F1"/>
<line x1="439.191" y1="135.724" x2="450.213" y2="125.391" stroke="#5819F1"/>
<line x1="448.901" y1="144.083" x2="438.567" y2="137.194" stroke="#5819F1"/>
<line x1="430.144" y1="150.997" x2="438.41" y2="136.53" stroke="#5819F1"/>
<line x1="425.334" y1="128.088" x2="438.423" y2="136.355" stroke="#5819F1"/>
<rect x="286" y="357" width="4" height="28" fill="#5819F1"/>
<rect x="295" y="363" width="4" height="22" fill="#5819F1"/>
<rect x="304" y="368" width="4" height="17" fill="#5819F1"/>
<rect x="133.75" y="254.75" width="21.5" height="37.5" rx="3.25" stroke="#5819F1" stroke-width="1.5"/>
<rect x="151.75" y="122.75" width="19.5" height="19.5" stroke="#5819F1" stroke-width="1.5"/>
<rect x="137.75" y="135.75" width="19.5" height="19.5" stroke="#5819F1" stroke-width="1.5"/>
<line x1="141.5" y1="258.5" x2="147.5" y2="258.5" stroke="#5819F1" stroke-linecap="round"/>
<rect x="152" y="136" width="5" height="6" fill="#5819F1"/>
<circle cx="296.5" cy="189.5" r="18.5" fill="#EA453A"/>
<path d="M332 250.5C332 230.894 316.106 215 296.5 215C276.894 215 261 230.894 261 250.5" stroke="#EA453A" stroke-width="2"/>
<path d="M423 269.25H445.25" stroke="#5819F1" stroke-width="1.5" stroke-linecap="round"/>
<path d="M461 277.25L438.75 277.25" stroke="#5819F1" stroke-width="1.5" stroke-linecap="round"/>
<path d="M437.5 269.5L447 260H456" stroke="#5819F1" stroke-width="1.5"/>
<path d="M446.5 277L437 286.5L428 286.5" stroke="#5819F1" stroke-width="1.5"/>
<circle cx="458" cy="260" r="3" fill="#5819F1"/>
<circle cx="426" cy="286.5" r="3" transform="rotate(180 426 286.5)" fill="#5819F1"/>
<line x1="423.75" y1="277.25" x2="430.25" y2="277.25" stroke="#5819F1" stroke-width="1.5" stroke-linecap="round"/>
<path d="M430.144 103.271L428.873 111.144L421 109.873" stroke="#C5C7D7" stroke-width="2" stroke-linecap="round" stroke-linejoin="round"/>
<path d="M162 103.271L163.271 111.144L171.144 109.873" stroke="#C5C7D7" stroke-width="2" stroke-linecap="round" stroke-linejoin="round"/>
<path d="M125.888 230.917L131.917 236.137L137.137 230.108" stroke="#C5C7D7" stroke-width="2" stroke-linecap="round" stroke-linejoin="round"/>
<path d="M466.278 230.705L460.573 236.277L455 230.573" stroke="#C5C7D7" stroke-width="2" stroke-linecap="round" stroke-linejoin="round"/>
<path d="M345.055 375.773L338 372.055L341.718 365" stroke="#C5C7D7" stroke-width="2" stroke-linecap="round" stroke-linejoin="round"/>
<path d="M162 317.945L162.685 310L170.631 310.685" stroke="#C5C7D7" stroke-width="2" stroke-linecap="round" stroke-linejoin="round"/>
<path d="M298 87C298 86.7239 297.776 86.5 297.5 86.5C297.224 86.5 297 86.7239 297 87L298 87ZM297.5 140.333C296.027 140.333 294.833 141.527 294.833 143C294.833 144.473 296.027 145.667 297.5 145.667C298.973 145.667 300.167 144.473 300.167 143C300.167 141.527 298.973 140.333 297.5 140.333ZM297 87L297 143L298 143L298 87L297 87Z" fill="#EA453A"/>
<path d="M297 333C297 333.276 297.224 333.5 297.5 333.5C297.776 333.5 298 333.276 298 333L297 333ZM297.5 279.667C298.973 279.667 300.167 278.473 300.167 277C300.167 275.527 298.973 274.333 297.5 274.333C296.027 274.333 294.833 275.527 294.833 277C294.833 278.473 296.027 279.667 297.5 279.667ZM298 333L298 277L297 277L297 333L298 333Z" fill="#EA453A"/>
<path d="M400.129 148.483C400.396 148.411 400.554 148.137 400.483 147.871C400.411 147.604 400.137 147.446 399.871 147.517L400.129 148.483ZM348.484 161.804C348.103 160.381 346.641 159.537 345.218 159.918C343.795 160.299 342.951 161.761 343.332 163.184C343.714 164.607 345.176 165.451 346.598 165.07C348.021 164.688 348.865 163.226 348.484 161.804ZM399.871 147.517L345.779 162.011L346.038 162.977L400.129 148.483L399.871 147.517Z" fill="#EA453A"/>
<path d="M191.871 148.483C191.604 148.411 191.446 148.137 191.517 147.871C191.589 147.604 191.863 147.446 192.129 147.517L191.871 148.483ZM243.516 161.804C243.897 160.381 245.359 159.537 246.782 159.918C248.205 160.299 249.049 161.761 248.668 163.184C248.286 164.607 246.824 165.451 245.402 165.07C243.979 164.688 243.135 163.226 243.516 161.804ZM192.129 147.517L246.221 162.011L245.962 162.977L191.871 148.483L192.129 147.517Z" fill="#EA453A"/>
<path d="M393.75 240.433C393.989 240.571 394.295 240.489 394.433 240.25C394.571 240.011 394.489 239.705 394.25 239.567L393.75 240.433ZM347.812 213.333C348.548 212.058 348.111 210.427 346.836 209.691C345.56 208.954 343.93 209.391 343.193 210.667C342.457 211.942 342.894 213.573 344.169 214.309C345.445 215.046 347.076 214.609 347.812 213.333ZM394.25 239.567L345.753 211.567L345.253 212.433L393.75 240.433L394.25 239.567Z" fill="#EA453A"/>
<path d="M198.25 240.433C198.011 240.571 197.705 240.489 197.567 240.25C197.429 240.011 197.511 239.705 197.75 239.567L198.25 240.433ZM244.188 213.333C243.452 212.058 243.889 210.427 245.164 209.691C246.44 208.954 248.07 209.391 248.807 210.667C249.543 211.942 249.106 213.573 247.831 214.309C246.555 215.046 244.924 214.609 244.188 213.333ZM197.75 239.567L246.247 211.567L246.747 212.433L198.25 240.433L197.75 239.567Z" fill="#EA453A"/>
</svg>
