<svg width="46" height="69" viewBox="0 0 46 69" fill="none" xmlns="http://www.w3.org/2000/svg">
<path d="M45.5959 34.344C45.5959 38.3032 42.3109 41.5159 38.2626 41.5159C34.2142 41.5159 30.9293 38.3032 30.9293 34.344C30.9293 30.3847 34.2142 27.172 38.2626 27.172C42.3109 27.172 45.5959 30.3847 45.5959 34.344ZM24.799 18.0317C21.3521 18.0317 18.553 20.7693 18.553 24.1403C18.553 27.5114 21.3521 30.2489 24.799 30.2489C28.2458 30.2489 31.045 27.5114 31.045 24.1403C31.045 20.7693 28.2458 18.0317 24.799 18.0317ZM14.4352 29.1403C11.5898 29.1403 9.27648 31.4028 9.27648 34.1856C9.27648 36.9684 11.5898 39.2308 14.4352 39.2308C17.2806 39.2308 19.594 36.9684 19.594 34.1856C19.594 31.4028 17.2806 29.1403 14.4352 29.1403ZM14.4352 7.3982C11.4973 7.3982 9.09141 9.72852 9.09141 12.6245C9.09141 15.5204 11.4741 17.8507 14.4352 17.8507C17.3963 17.8507 19.779 15.5204 19.779 12.6245C19.779 9.72852 17.3963 7.3982 14.4352 7.3982ZM14.4352 50.8372C11.4973 50.8372 9.09141 53.1675 9.09141 56.0634C9.09141 58.9594 11.4741 61.2897 14.4352 61.2897C17.3963 61.2897 19.779 58.9594 19.779 56.0634C19.779 53.1675 17.3963 50.8372 14.4352 50.8372ZM4.14087 40.2037C1.85067 40.2037 0 42.0136 0 44.2535C0 46.4933 1.85067 48.3033 4.14087 48.3033C6.43108 48.3033 8.28174 46.4933 8.28174 44.2535C8.28174 42.0136 6.43108 40.2037 4.14087 40.2037ZM4.14087 60.2942C1.85067 60.2942 0 62.1042 0 64.344C0 66.5838 1.85067 68.3938 4.14087 68.3938C6.43108 68.3938 8.28174 66.5838 8.28174 64.344C8.28174 62.1042 6.43108 60.2942 4.14087 60.2942ZM4.14087 20.1358C1.85067 20.1358 0 21.9457 0 24.1856C0 26.4254 1.85067 28.2353 4.14087 28.2353C6.43108 28.2353 8.28174 26.4254 8.28174 24.1856C8.28174 21.9457 6.43108 20.1358 4.14087 20.1358ZM4.14087 0C1.85067 0 0 1.80996 0 4.04978C0 6.2896 1.85067 8.09956 4.14087 8.09956C6.43108 8.09956 8.28174 6.2896 8.28174 4.04978C8.28174 1.80996 6.43108 0 4.14087 0ZM24.799 38.439C21.3521 38.439 18.553 41.1765 18.553 44.5476C18.553 47.9186 21.3521 50.6562 24.799 50.6562C28.2458 50.6562 31.045 47.9186 31.045 44.5476C31.045 41.1765 28.2458 38.439 24.799 38.439Z" fill="#FED500"/>
</svg>
