<svg width="46" height="69" viewBox="0 0 46 69" fill="none" xmlns="http://www.w3.org/2000/svg">
<path d="M46.0002 34.344C46.0002 38.3032 42.7152 41.5159 38.6669 41.5159C34.6185 41.5159 31.3336 38.3032 31.3336 34.344C31.3336 30.3847 34.6185 27.172 38.6669 27.172C42.7152 27.172 46.0002 30.3847 46.0002 34.344ZM25.2033 18.0317C21.7564 18.0317 18.9573 20.7693 18.9573 24.1403C18.9573 27.5114 21.7564 30.2489 25.2033 30.2489C28.6501 30.2489 31.4493 27.5114 31.4493 24.1403C31.4493 20.7693 28.6501 18.0317 25.2033 18.0317ZM14.8395 29.1403C11.9941 29.1403 9.68078 31.4028 9.68078 34.1856C9.68078 36.9684 11.9941 39.2308 14.8395 39.2308C17.6849 39.2308 19.9983 36.9684 19.9983 34.1856C19.9983 31.4028 17.6849 29.1403 14.8395 29.1403ZM14.8395 7.3982C11.9016 7.3982 9.49571 9.72852 9.49571 12.6245C9.49571 15.5204 11.8784 17.8507 14.8395 17.8507C17.8006 17.8507 20.1833 15.5204 20.1833 12.6245C20.1833 9.72852 17.8006 7.3982 14.8395 7.3982ZM14.8395 50.8372C11.9016 50.8372 9.49571 53.1675 9.49571 56.0634C9.49571 58.9594 11.8784 61.2897 14.8395 61.2897C17.8006 61.2897 20.1833 58.9594 20.1833 56.0634C20.1833 53.1675 17.8006 50.8372 14.8395 50.8372ZM4.54517 40.2037C2.25497 40.2037 0.404297 42.0136 0.404297 44.2535C0.404297 46.4933 2.25497 48.3033 4.54517 48.3033C6.83537 48.3033 8.68604 46.4933 8.68604 44.2535C8.68604 42.0136 6.83537 40.2037 4.54517 40.2037ZM4.54517 60.2942C2.25497 60.2942 0.404297 62.1042 0.404297 64.344C0.404297 66.5838 2.25497 68.3938 4.54517 68.3938C6.83537 68.3938 8.68604 66.5838 8.68604 64.344C8.68604 62.1042 6.83537 60.2942 4.54517 60.2942ZM4.54517 20.1358C2.25497 20.1358 0.404297 21.9457 0.404297 24.1856C0.404297 26.4254 2.25497 28.2353 4.54517 28.2353C6.83537 28.2353 8.68604 26.4254 8.68604 24.1856C8.68604 21.9457 6.83537 20.1358 4.54517 20.1358ZM4.54517 0C2.25497 0 0.404297 1.80996 0.404297 4.04978C0.404297 6.2896 2.25497 8.09956 4.54517 8.09956C6.83537 8.09956 8.68604 6.2896 8.68604 4.04978C8.68604 1.80996 6.83537 0 4.54517 0ZM25.2033 38.439C21.7564 38.439 18.9573 41.1765 18.9573 44.5476C18.9573 47.9186 21.7564 50.6562 25.2033 50.6562C28.6501 50.6562 31.4493 47.9186 31.4493 44.5476C31.4493 41.1765 28.6501 38.439 25.2033 38.439Z" fill="white"/>
</svg>
