<svg width="48" height="69" viewBox="0 0 48 69" fill="none" xmlns="http://www.w3.org/2000/svg">
<path d="M47.2539 34.344C47.2539 38.3032 43.9032 41.5159 39.7739 41.5159C35.6446 41.5159 32.294 38.3032 32.294 34.344C32.294 30.3847 35.6446 27.172 39.7739 27.172C43.9032 27.172 47.2539 30.3847 47.2539 34.344ZM26.041 18.0317C22.5252 18.0317 19.6701 20.7693 19.6701 24.1403C19.6701 27.5114 22.5252 30.2489 26.041 30.2489C29.5568 30.2489 32.412 27.5114 32.412 24.1403C32.412 20.7693 29.5568 18.0317 26.041 18.0317ZM15.47 29.1403C12.5677 29.1403 10.2081 31.4028 10.2081 34.1856C10.2081 36.9684 12.5677 39.2308 15.47 39.2308C18.3723 39.2308 20.7319 36.9684 20.7319 34.1856C20.7319 31.4028 18.3723 29.1403 15.47 29.1403ZM15.47 7.3982C12.4733 7.3982 10.0193 9.72852 10.0193 12.6245C10.0193 15.5204 12.4497 17.8507 15.47 17.8507C18.4903 17.8507 20.9207 15.5204 20.9207 12.6245C20.9207 9.72852 18.4903 7.3982 15.47 7.3982ZM15.47 50.8372C12.4733 50.8372 10.0193 53.1675 10.0193 56.0634C10.0193 58.9594 12.4497 61.2897 15.47 61.2897C18.4903 61.2897 20.9207 58.9594 20.9207 56.0634C20.9207 53.1675 18.4903 50.8372 15.47 50.8372ZM4.96978 40.2037C2.63378 40.2037 0.746094 42.0136 0.746094 44.2535C0.746094 46.4933 2.63378 48.3033 4.96978 48.3033C7.30579 48.3033 9.19347 46.4933 9.19347 44.2535C9.19347 42.0136 7.30579 40.2037 4.96978 40.2037ZM4.96978 60.2942C2.63378 60.2942 0.746094 62.1042 0.746094 64.344C0.746094 66.5838 2.63378 68.3938 4.96978 68.3938C7.30579 68.3938 9.19347 66.5838 9.19347 64.344C9.19347 62.1042 7.30579 60.2942 4.96978 60.2942ZM4.96978 20.1358C2.63378 20.1358 0.746094 21.9457 0.746094 24.1856C0.746094 26.4254 2.63378 28.2353 4.96978 28.2353C7.30579 28.2353 9.19347 26.4254 9.19347 24.1856C9.19347 21.9457 7.30579 20.1358 4.96978 20.1358ZM4.96978 0C2.63378 0 0.746094 1.80996 0.746094 4.04978C0.746094 6.2896 2.63378 8.09956 4.96978 8.09956C7.30579 8.09956 9.19347 6.2896 9.19347 4.04978C9.19347 1.80996 7.30579 0 4.96978 0ZM26.041 38.439C22.5252 38.439 19.6701 41.1765 19.6701 44.5476C19.6701 47.9186 22.5252 50.6562 26.041 50.6562C29.5568 50.6562 32.412 47.9186 32.412 44.5476C32.412 41.1765 29.5568 38.439 26.041 38.439Z" fill="#FE2C2D"/>
</svg>
