<svg width="20" height="20" viewBox="0 0 20 20" fill="none" xmlns="http://www.w3.org/2000/svg">
<path d="M12 2C12.5523 2 13 2.44772 13 3C13 3.55228 12.5523 4 12 4H10C9.44772 4 9 3.55228 9 3C9 2.44772 9.44772 2 10 2H12Z" fill="#5819F1"/>
<path d="M17 5C17 3.89543 16.1046 3 15 3C15 4.65685 13.6569 6 12 6H10C8.34315 6 7 4.65685 7 3C5.89543 3 5 3.89543 5 5V11H9.58579L8.29289 9.70711C7.90237 9.31658 7.90237 8.68342 8.29289 8.29289C8.68342 7.90237 9.31658 7.90237 9.70711 8.29289L12.7071 11.2929C13.0976 11.6834 13.0976 12.3166 12.7071 12.7071L9.70711 15.7071C9.31658 16.0976 8.68342 16.0976 8.29289 15.7071C7.90237 15.3166 7.90237 14.6834 8.29289 14.2929L9.58579 13H5V16C5 17.1046 5.89543 18 7 18H15C16.1046 18 17 17.1046 17 16V5Z" fill="#5819F1"/>
<path d="M5 11H3C2.44772 11 2 11.4477 2 12C2 12.5523 2.44772 13 3 13H5V11Z" fill="#5819F1"/>
</svg>
